<svg class="rich-terminal" viewBox="0 0 1482 904.0" xmlns="http://www.w3.org/2000/svg">
    <!-- Generated with Rich https://www.textualize.io -->
    <style>

    @font-face {
        font-family: "Fira Code";
        src: local("FiraCode-Regular"),
                url("https://cdnjs.cloudflare.com/ajax/libs/firacode/6.2.0/woff2/FiraCode-Regular.woff2") format("woff2"),
                url("https://cdnjs.cloudflare.com/ajax/libs/firacode/6.2.0/woff/FiraCode-Regular.woff") format("woff");
        font-style: normal;
        font-weight: 400;
    }
    @font-face {
        font-family: "Fira Code";
        src: local("FiraCode-Bold"),
                url("https://cdnjs.cloudflare.com/ajax/libs/firacode/6.2.0/woff2/FiraCode-Bold.woff2") format("woff2"),
                url("https://cdnjs.cloudflare.com/ajax/libs/firacode/6.2.0/woff/FiraCode-Bold.woff") format("woff");
        font-style: bold;
        font-weight: 700;
    }

    .terminal-26338496-matrix {
        font-family: Fira Code, monospace;
        font-size: 20px;
        line-height: 24.4px;
        font-variant-east-asian: full-width;
    }

    .terminal-26338496-title {
        font-size: 18px;
        font-weight: bold;
        font-family: arial;
    }

    .terminal-26338496-r1 { fill: #c5c8c6 }
.terminal-26338496-r2 { fill: #f0f0f0 }
.terminal-26338496-r3 { fill: #a8a8a8 }
.terminal-26338496-r4 { fill: #49c441 }
.terminal-26338496-r5 { fill: #0a0a0a }
.terminal-26338496-r6 { fill: #424953 }
.terminal-26338496-r7 { fill: #3f181a }
.terminal-26338496-r8 { fill: #ddf2e0;font-weight: bold }
.terminal-26338496-r9 { fill: #9c9fa4 }
.terminal-26338496-r10 { fill: #736062;font-weight: bold }
.terminal-26338496-r11 { fill: #005f00 }
.terminal-26338496-r12 { fill: #190505 }
.terminal-26338496-r13 { fill: #9b0014 }
.terminal-26338496-r14 { fill: #b9bbbf }
.terminal-26338496-r15 { fill: #f2dde0;font-weight: bold }
.terminal-26338496-r16 { fill: #9b0014;font-weight: bold }
    </style>

    <defs>
    <clipPath id="terminal-26338496-clip-terminal">
      <rect x="0" y="0" width="1463.0" height="853.0" />
    </clipPath>
    <clipPath id="terminal-26338496-line-0">
    <rect x="0" y="1.5" width="1464" height="24.65"/>
            </clipPath>
<clipPath id="terminal-26338496-line-1">
    <rect x="0" y="25.9" width="1464" height="24.65"/>
            </clipPath>
<clipPath id="terminal-26338496-line-2">
    <rect x="0" y="50.3" width="1464" height="24.65"/>
            </clipPath>
<clipPath id="terminal-26338496-line-3">
    <rect x="0" y="74.7" width="1464" height="24.65"/>
            </clipPath>
<clipPath id="terminal-26338496-line-4">
    <rect x="0" y="99.1" width="1464" height="24.65"/>
            </clipPath>
<clipPath id="terminal-26338496-line-5">
    <rect x="0" y="123.5" width="1464" height="24.65"/>
            </clipPath>
<clipPath id="terminal-26338496-line-6">
    <rect x="0" y="147.9" width="1464" height="24.65"/>
            </clipPath>
<clipPath id="terminal-26338496-line-7">
    <rect x="0" y="172.3" width="1464" height="24.65"/>
            </clipPath>
<clipPath id="terminal-26338496-line-8">
    <rect x="0" y="196.7" width="1464" height="24.65"/>
            </clipPath>
<clipPath id="terminal-26338496-line-9">
    <rect x="0" y="221.1" width="1464" height="24.65"/>
            </clipPath>
<clipPath id="terminal-26338496-line-10">
    <rect x="0" y="245.5" width="1464" height="24.65"/>
            </clipPath>
<clipPath id="terminal-26338496-line-11">
    <rect x="0" y="269.9" width="1464" height="24.65"/>
            </clipPath>
<clipPath id="terminal-26338496-line-12">
    <rect x="0" y="294.3" width="1464" height="24.65"/>
            </clipPath>
<clipPath id="terminal-26338496-line-13">
    <rect x="0" y="318.7" width="1464" height="24.65"/>
            </clipPath>
<clipPath id="terminal-26338496-line-14">
    <rect x="0" y="343.1" width="1464" height="24.65"/>
            </clipPath>
<clipPath id="terminal-26338496-line-15">
    <rect x="0" y="367.5" width="1464" height="24.65"/>
            </clipPath>
<clipPath id="terminal-26338496-line-16">
    <rect x="0" y="391.9" width="1464" height="24.65"/>
            </clipPath>
<clipPath id="terminal-26338496-line-17">
    <rect x="0" y="416.3" width="1464" height="24.65"/>
            </clipPath>
<clipPath id="terminal-26338496-line-18">
    <rect x="0" y="440.7" width="1464" height="24.65"/>
            </clipPath>
<clipPath id="terminal-26338496-line-19">
    <rect x="0" y="465.1" width="1464" height="24.65"/>
            </clipPath>
<clipPath id="terminal-26338496-line-20">
    <rect x="0" y="489.5" width="1464" height="24.65"/>
            </clipPath>
<clipPath id="terminal-26338496-line-21">
    <rect x="0" y="513.9" width="1464" height="24.65"/>
            </clipPath>
<clipPath id="terminal-26338496-line-22">
    <rect x="0" y="538.3" width="1464" height="24.65"/>
            </clipPath>
<clipPath id="terminal-26338496-line-23">
    <rect x="0" y="562.7" width="1464" height="24.65"/>
            </clipPath>
<clipPath id="terminal-26338496-line-24">
    <rect x="0" y="587.1" width="1464" height="24.65"/>
            </clipPath>
<clipPath id="terminal-26338496-line-25">
    <rect x="0" y="611.5" width="1464" height="24.65"/>
            </clipPath>
<clipPath id="terminal-26338496-line-26">
    <rect x="0" y="635.9" width="1464" height="24.65"/>
            </clipPath>
<clipPath id="terminal-26338496-line-27">
    <rect x="0" y="660.3" width="1464" height="24.65"/>
            </clipPath>
<clipPath id="terminal-26338496-line-28">
    <rect x="0" y="684.7" width="1464" height="24.65"/>
            </clipPath>
<clipPath id="terminal-26338496-line-29">
    <rect x="0" y="709.1" width="1464" height="24.65"/>
            </clipPath>
<clipPath id="terminal-26338496-line-30">
    <rect x="0" y="733.5" width="1464" height="24.65"/>
            </clipPath>
<clipPath id="terminal-26338496-line-31">
    <rect x="0" y="757.9" width="1464" height="24.65"/>
            </clipPath>
<clipPath id="terminal-26338496-line-32">
    <rect x="0" y="782.3" width="1464" height="24.65"/>
            </clipPath>
<clipPath id="terminal-26338496-line-33">
    <rect x="0" y="806.7" width="1464" height="24.65"/>
            </clipPath>
    </defs>

    <rect fill="#292929" stroke="rgba(255,255,255,0.35)" stroke-width="1" x="1" y="1" width="1480" height="902" rx="8"/><text class="terminal-26338496-title" fill="#c5c8c6" text-anchor="middle" x="740" y="27">StudyTime</text>
            <g transform="translate(26,22)">
            <circle cx="0" cy="0" r="7" fill="#ff5f57"/>
            <circle cx="22" cy="0" r="7" fill="#febc2e"/>
            <circle cx="44" cy="0" r="7" fill="#28c840"/>
            </g>
        
    <g transform="translate(9, 41)" clip-path="url(#terminal-26338496-clip-terminal)">
    <rect fill="#1e1e1e" x="0" y="1.5" width="12.2" height="24.65" shape-rendering="crispEdges"/><rect fill="#1e1e1e" x="12.2" y="1.5" width="12.2" height="24.65" shape-rendering="crispEdges"/><rect fill="#1e1e1e" x="24.4" y="1.5" width="61" height="24.65" shape-rendering="crispEdges"/><rect fill="#1e1e1e" x="85.4" y="1.5" width="12.2" height="24.65" shape-rendering="crispEdges"/><rect fill="#1e1e1e" x="97.6" y="1.5" width="463.6" height="24.65" shape-rendering="crispEdges"/><rect fill="#1e1e1e" x="561.2" y="1.5" width="109.8" height="24.65" shape-rendering="crispEdges"/><rect fill="#1e1e1e" x="671" y="1.5" width="36.6" height="24.65" shape-rendering="crispEdges"/><rect fill="#1e1e1e" x="707.6" y="1.5" width="158.6" height="24.65" shape-rendering="crispEdges"/><rect fill="#1e1e1e" x="866.2" y="1.5" width="475.8" height="24.65" shape-rendering="crispEdges"/><rect fill="#1e1e1e" x="1342" y="1.5" width="12.2" height="24.65" shape-rendering="crispEdges"/><rect fill="#1e1e1e" x="1354.2" y="1.5" width="0" height="24.65" shape-rendering="crispEdges"/><rect fill="#1e1e1e" x="1354.2" y="1.5" width="97.6" height="24.65" shape-rendering="crispEdges"/><rect fill="#1e1e1e" x="1451.8" y="1.5" width="12.2" height="24.65" shape-rendering="crispEdges"/><rect fill="#0a0a0a" x="0" y="25.9" width="1464" height="24.65" shape-rendering="crispEdges"/><rect fill="#0a0a0a" x="0" y="50.3" width="1464" height="24.65" shape-rendering="crispEdges"/><rect fill="#0a0a0a" x="0" y="74.7" width="1464" height="24.65" shape-rendering="crispEdges"/><rect fill="#0a0a0a" x="0" y="99.1" width="1464" height="24.65" shape-rendering="crispEdges"/><rect fill="#0a0a0a" x="0" y="123.5" width="1464" height="24.65" shape-rendering="crispEdges"/><rect fill="#0a0a0a" x="0" y="147.9" width="1464" height="24.65" shape-rendering="crispEdges"/><rect fill="#0a0a0a" x="0" y="172.3" width="1464" height="24.65" shape-rendering="crispEdges"/><rect fill="#0a0a0a" x="0" y="196.7" width="1464" height="24.65" shape-rendering="crispEdges"/><rect fill="#0a0a0a" x="0" y="221.1" width="1464" height="24.65" shape-rendering="crispEdges"/><rect fill="#0a0a0a" x="0" y="245.5" width="1464" height="24.65" shape-rendering="crispEdges"/><rect fill="#0a0a0a" x="0" y="269.9" width="1464" height="24.65" shape-rendering="crispEdges"/><rect fill="#0a0a0a" x="0" y="294.3" width="1464" height="24.65" shape-rendering="crispEdges"/><rect fill="#0a0a0a" x="0" y="318.7" width="1464" height="24.65" shape-rendering="crispEdges"/><rect fill="#0a0a0a" x="0" y="343.1" width="585.6" height="24.65" shape-rendering="crispEdges"/><rect fill="#0a0a0a" x="585.6" y="343.1" width="292.8" height="24.65" shape-rendering="crispEdges"/><rect fill="#0a0a0a" x="878.4" y="343.1" width="585.6" height="24.65" shape-rendering="crispEdges"/><rect fill="#0a0a0a" x="0" y="367.5" width="585.6" height="24.65" shape-rendering="crispEdges"/><rect fill="#0a0a0a" x="585.6" y="367.5" width="292.8" height="24.65" shape-rendering="crispEdges"/><rect fill="#0a0a0a" x="878.4" y="367.5" width="585.6" height="24.65" shape-rendering="crispEdges"/><rect fill="#0a0a0a" x="0" y="391.9" width="585.6" height="24.65" shape-rendering="crispEdges"/><rect fill="#0a0a0a" x="585.6" y="391.9" width="292.8" height="24.65" shape-rendering="crispEdges"/><rect fill="#0a0a0a" x="878.4" y="391.9" width="585.6" height="24.65" shape-rendering="crispEdges"/><rect fill="#0a0a0a" x="0" y="416.3" width="1464" height="24.65" shape-rendering="crispEdges"/><rect fill="#0a0a0a" x="0" y="440.7" width="183" height="24.65" shape-rendering="crispEdges"/><rect fill="#0a0a0a" x="183" y="440.7" width="12.2" height="24.65" shape-rendering="crispEdges"/><rect fill="#009b14" x="195.2" y="440.7" width="183" height="24.65" shape-rendering="crispEdges"/><rect fill="#0a0a0a" x="378.2" y="440.7" width="24.4" height="24.65" shape-rendering="crispEdges"/><rect fill="#424953" x="402.6" y="440.7" width="12.2" height="24.65" shape-rendering="crispEdges"/><rect fill="#484f59" x="414.8" y="440.7" width="634.4" height="24.65" shape-rendering="crispEdges"/><rect fill="#0a0a0a" x="1049.2" y="440.7" width="12.2" height="24.65" shape-rendering="crispEdges"/><rect fill="#0a0a0a" x="1061.4" y="440.7" width="24.4" height="24.65" shape-rendering="crispEdges"/><rect fill="#2a050a" x="1085.8" y="440.7" width="183" height="24.65" shape-rendering="crispEdges"/><rect fill="#0a0a0a" x="1268.8" y="440.7" width="12.2" height="24.65" shape-rendering="crispEdges"/><rect fill="#0a0a0a" x="1281" y="440.7" width="183" height="24.65" shape-rendering="crispEdges"/><rect fill="#0a0a0a" x="0" y="465.1" width="183" height="24.65" shape-rendering="crispEdges"/><rect fill="#0a0a0a" x="183" y="465.1" width="12.2" height="24.65" shape-rendering="crispEdges"/><rect fill="#009b14" x="195.2" y="465.1" width="48.8" height="24.65" shape-rendering="crispEdges"/><rect fill="#009b14" x="244" y="465.1" width="85.4" height="24.65" shape-rendering="crispEdges"/><rect fill="#009b14" x="329.4" y="465.1" width="48.8" height="24.65" shape-rendering="crispEdges"/><rect fill="#0a0a0a" x="378.2" y="465.1" width="24.4" height="24.65" shape-rendering="crispEdges"/><rect fill="#424953" x="402.6" y="465.1" width="12.2" height="24.65" shape-rendering="crispEdges"/><rect fill="#484f59" x="414.8" y="465.1" width="24.4" height="24.65" shape-rendering="crispEdges"/><rect fill="#484f59" x="439.2" y="465.1" width="97.6" height="24.65" shape-rendering="crispEdges"/><rect fill="#484f59" x="536.8" y="465.1" width="463.6" height="24.65" shape-rendering="crispEdges"/><rect fill="#484f59" x="1000.4" y="465.1" width="12.2" height="24.65" shape-rendering="crispEdges"/><rect fill="#484f59" x="1012.6" y="465.1" width="12.2" height="24.65" shape-rendering="crispEdges"/><rect fill="#484f59" x="1024.8" y="465.1" width="24.4" height="24.65" shape-rendering="crispEdges"/><rect fill="#0a0a0a" x="1049.2" y="465.1" width="12.2" height="24.65" shape-rendering="crispEdges"/><rect fill="#0a0a0a" x="1061.4" y="465.1" width="24.4" height="24.65" shape-rendering="crispEdges"/><rect fill="#2a050a" x="1085.8" y="465.1" width="48.8" height="24.65" shape-rendering="crispEdges"/><rect fill="#2a050a" x="1134.6" y="465.1" width="73.2" height="24.65" shape-rendering="crispEdges"/><rect fill="#2a050a" x="1207.8" y="465.1" width="61" height="24.65" shape-rendering="crispEdges"/><rect fill="#0a0a0a" x="1268.8" y="465.1" width="12.2" height="24.65" shape-rendering="crispEdges"/><rect fill="#0a0a0a" x="1281" y="465.1" width="183" height="24.65" shape-rendering="crispEdges"/><rect fill="#0a0a0a" x="0" y="489.5" width="183" height="24.65" shape-rendering="crispEdges"/><rect fill="#0a0a0a" x="183" y="489.5" width="12.2" height="24.65" shape-rendering="crispEdges"/><rect fill="#009b14" x="195.2" y="489.5" width="183" height="24.65" shape-rendering="crispEdges"/><rect fill="#0a0a0a" x="378.2" y="489.5" width="24.4" height="24.65" shape-rendering="crispEdges"/><rect fill="#424953" x="402.6" y="489.5" width="12.2" height="24.65" shape-rendering="crispEdges"/><rect fill="#484f59" x="414.8" y="489.5" width="634.4" height="24.65" shape-rendering="crispEdges"/><rect fill="#0a0a0a" x="1049.2" y="489.5" width="12.2" height="24.65" shape-rendering="crispEdges"/><rect fill="#0a0a0a" x="1061.4" y="489.5" width="24.4" height="24.65" shape-rendering="crispEdges"/><rect fill="#2a050a" x="1085.8" y="489.5" width="183" height="24.65" shape-rendering="crispEdges"/><rect fill="#0a0a0a" x="1268.8" y="489.5" width="12.2" height="24.65" shape-rendering="crispEdges"/><rect fill="#0a0a0a" x="1281" y="489.5" width="183" height="24.65" shape-rendering="crispEdges"/><rect fill="#0a0a0a" x="0" y="513.9" width="402.6" height="24.65" shape-rendering="crispEdges"/><rect fill="#9b0014" x="402.6" y="513.9" width="12.2" height="24.65" shape-rendering="crispEdges"/><rect fill="#505760" x="414.8" y="513.9" width="634.4" height="24.65" shape-rendering="crispEdges"/><rect fill="#0a0a0a" x="1049.2" y="513.9" width="12.2" height="24.65" shape-rendering="crispEdges"/><rect fill="#0a0a0a" x="1061.4" y="513.9" width="402.6" height="24.65" shape-rendering="crispEdges"/><rect fill="#0a0a0a" x="0" y="538.3" width="402.6" height="24.65" shape-rendering="crispEdges"/><rect fill="#9b0014" x="402.6" y="538.3" width="12.2" height="24.65" shape-rendering="crispEdges"/><rect fill="#505760" x="414.8" y="538.3" width="12.2" height="24.65" shape-rendering="crispEdges"/><rect fill="#505760" x="427" y="538.3" width="12.2" height="24.65" shape-rendering="crispEdges"/><rect fill="#505760" x="439.2" y="538.3" width="170.8" height="24.65" shape-rendering="crispEdges"/><rect fill="#505760" x="610" y="538.3" width="414.8" height="24.65" shape-rendering="crispEdges"/><rect fill="#505760" x="1024.8" y="538.3" width="12.2" height="24.65" shape-rendering="crispEdges"/><rect fill="#505760" x="1037" y="538.3" width="12.2" height="24.65" shape-rendering="crispEdges"/><rect fill="#0a0a0a" x="1049.2" y="538.3" width="12.2" height="24.65" shape-rendering="crispEdges"/><rect fill="#0a0a0a" x="1061.4" y="538.3" width="402.6" height="24.65" shape-rendering="crispEdges"/><rect fill="#0a0a0a" x="0" y="562.7" width="402.6" height="24.65" shape-rendering="crispEdges"/><rect fill="#9b0014" x="402.6" y="562.7" width="12.2" height="24.65" shape-rendering="crispEdges"/><rect fill="#505760" x="414.8" y="562.7" width="12.2" height="24.65" shape-rendering="crispEdges"/><rect fill="#505760" x="427" y="562.7" width="12.2" height="24.65" shape-rendering="crispEdges"/><rect fill="#505760" x="439.2" y="562.7" width="73.2" height="24.65" shape-rendering="crispEdges"/><rect fill="#505760" x="512.4" y="562.7" width="512.4" height="24.65" shape-rendering="crispEdges"/><rect fill="#505760" x="1024.8" y="562.7" width="12.2" height="24.65" shape-rendering="crispEdges"/><rect fill="#505760" x="1037" y="562.7" width="12.2" height="24.65" shape-rendering="crispEdges"/><rect fill="#0a0a0a" x="1049.2" y="562.7" width="12.2" height="24.65" shape-rendering="crispEdges"/><rect fill="#0a0a0a" x="1061.4" y="562.7" width="402.6" height="24.65" shape-rendering="crispEdges"/><rect fill="#0a0a0a" x="0" y="587.1" width="402.6" height="24.65" shape-rendering="crispEdges"/><rect fill="#9b0014" x="402.6" y="587.1" width="12.2" height="24.65" shape-rendering="crispEdges"/><rect fill="#505760" x="414.8" y="587.1" width="12.2" height="24.65" shape-rendering="crispEdges"/><rect fill="#505760" x="427" y="587.1" width="12.2" height="24.65" shape-rendering="crispEdges"/><rect fill="#505760" x="439.2" y="587.1" width="97.6" height="24.65" shape-rendering="crispEdges"/><rect fill="#505760" x="536.8" y="587.1" width="488" height="24.65" shape-rendering="crispEdges"/><rect fill="#505760" x="1024.8" y="587.1" width="12.2" height="24.65" shape-rendering="crispEdges"/><rect fill="#505760" x="1037" y="587.1" width="12.2" height="24.65" shape-rendering="crispEdges"/><rect fill="#0a0a0a" x="1049.2" y="587.1" width="12.2" height="24.65" shape-rendering="crispEdges"/><rect fill="#0a0a0a" x="1061.4" y="587.1" width="402.6" height="24.65" shape-rendering="crispEdges"/><rect fill="#0a0a0a" x="0" y="611.5" width="402.6" height="24.65" shape-rendering="crispEdges"/><rect fill="#9b0014" x="402.6" y="611.5" width="12.2" height="24.65" shape-rendering="crispEdges"/><rect fill="#505760" x="414.8" y="611.5" width="12.2" height="24.65" shape-rendering="crispEdges"/><rect fill="#505760" x="427" y="611.5" width="12.2" height="24.65" shape-rendering="crispEdges"/><rect fill="#505760" x="439.2" y="611.5" width="85.4" height="24.65" shape-rendering="crispEdges"/><rect fill="#505760" x="524.6" y="611.5" width="500.2" height="24.65" shape-rendering="crispEdges"/><rect fill="#505760" x="1024.8" y="611.5" width="12.2" height="24.65" shape-rendering="crispEdges"/><rect fill="#505760" x="1037" y="611.5" width="12.2" height="24.65" shape-rendering="crispEdges"/><rect fill="#0a0a0a" x="1049.2" y="611.5" width="12.2" height="24.65" shape-rendering="crispEdges"/><rect fill="#0a0a0a" x="1061.4" y="611.5" width="402.6" height="24.65" shape-rendering="crispEdges"/><rect fill="#0a0a0a" x="0" y="635.9" width="402.6" height="24.65" shape-rendering="crispEdges"/><rect fill="#9b0014" x="402.6" y="635.9" width="12.2" height="24.65" shape-rendering="crispEdges"/><rect fill="#505760" x="414.8" y="635.9" width="12.2" height="24.65" shape-rendering="crispEdges"/><rect fill="#9b0014" x="427" y="635.9" width="12.2" height="24.65" shape-rendering="crispEdges"/><rect fill="#9b0014" x="439.2" y="635.9" width="97.6" height="24.65" shape-rendering="crispEdges"/><rect fill="#9b0014" x="536.8" y="635.9" width="488" height="24.65" shape-rendering="crispEdges"/><rect fill="#9b0014" x="1024.8" y="635.9" width="12.2" height="24.65" shape-rendering="crispEdges"/><rect fill="#505760" x="1037" y="635.9" width="12.2" height="24.65" shape-rendering="crispEdges"/><rect fill="#0a0a0a" x="1049.2" y="635.9" width="12.2" height="24.65" shape-rendering="crispEdges"/><rect fill="#0a0a0a" x="1061.4" y="635.9" width="402.6" height="24.65" shape-rendering="crispEdges"/><rect fill="#0a0a0a" x="0" y="660.3" width="402.6" height="24.65" shape-rendering="crispEdges"/><rect fill="#9b0014" x="402.6" y="660.3" width="12.2" height="24.65" shape-rendering="crispEdges"/><rect fill="#505760" x="414.8" y="660.3" width="12.2" height="24.65" shape-rendering="crispEdges"/><rect fill="#505760" x="427" y="660.3" width="12.2" height="24.65" shape-rendering="crispEdges"/><rect fill="#505760" x="439.2" y="660.3" width="122" height="24.65" shape-rendering="crispEdges"/><rect fill="#505760" x="561.2" y="660.3" width="463.6" height="24.65" shape-rendering="crispEdges"/><rect fill="#505760" x="1024.8" y="660.3" width="12.2" height="24.65" shape-rendering="crispEdges"/><rect fill="#505760" x="1037" y="660.3" width="12.2" height="24.65" shape-rendering="crispEdges"/><rect fill="#0a0a0a" x="1049.2" y="660.3" width="12.2" height="24.65" shape-rendering="crispEdges"/><rect fill="#0a0a0a" x="1061.4" y="660.3" width="402.6" height="24.65" shape-rendering="crispEdges"/><rect fill="#0a0a0a" x="0" y="684.7" width="402.6" height="24.65" shape-rendering="crispEdges"/><rect fill="#9b0014" x="402.6" y="684.7" width="12.2" height="24.65" shape-rendering="crispEdges"/><rect fill="#505760" x="414.8" y="684.7" width="12.2" height="24.65" shape-rendering="crispEdges"/><rect fill="#505760" x="427" y="684.7" width="12.2" height="24.65" shape-rendering="crispEdges"/><rect fill="#505760" x="439.2" y="684.7" width="73.2" height="24.65" shape-rendering="crispEdges"/><rect fill="#505760" x="512.4" y="684.7" width="512.4" height="24.65" shape-rendering="crispEdges"/><rect fill="#505760" x="1024.8" y="684.7" width="12.2" height="24.65" shape-rendering="crispEdges"/><rect fill="#505760" x="1037" y="684.7" width="12.2" height="24.65" shape-rendering="crispEdges"/><rect fill="#0a0a0a" x="1049.2" y="684.7" width="12.2" height="24.65" shape-rendering="crispEdges"/><rect fill="#0a0a0a" x="1061.4" y="684.7" width="402.6" height="24.65" shape-rendering="crispEdges"/><rect fill="#0a0a0a" x="0" y="709.1" width="402.6" height="24.65" shape-rendering="crispEdges"/><rect fill="#9b0014" x="402.6" y="709.1" width="12.2" height="24.65" shape-rendering="crispEdges"/><rect fill="#505760" x="414.8" y="709.1" width="12.2" height="24.65" shape-rendering="crispEdges"/><rect fill="#505760" x="427" y="709.1" width="12.2" height="24.65" shape-rendering="crispEdges"/><rect fill="#505760" x="439.2" y="709.1" width="85.4" height="24.65" shape-rendering="crispEdges"/><rect fill="#505760" x="524.6" y="709.1" width="500.2" height="24.65" shape-rendering="crispEdges"/><rect fill="#505760" x="1024.8" y="709.1" width="12.2" height="24.65" shape-rendering="crispEdges"/><rect fill="#505760" x="1037" y="709.1" width="12.2" height="24.65" shape-rendering="crispEdges"/><rect fill="#0a0a0a" x="1049.2" y="709.1" width="12.2" height="24.65" shape-rendering="crispEdges"/><rect fill="#0a0a0a" x="1061.4" y="709.1" width="402.6" height="24.65" shape-rendering="crispEdges"/><rect fill="#0a0a0a" x="0" y="733.5" width="402.6" height="24.65" shape-rendering="crispEdges"/><rect fill="#9b0014" x="402.6" y="733.5" width="12.2" height="24.65" shape-rendering="crispEdges"/><rect fill="#505760" x="414.8" y="733.5" width="634.4" height="24.65" shape-rendering="crispEdges"/><rect fill="#0a0a0a" x="1049.2" y="733.5" width="12.2" height="24.65" shape-rendering="crispEdges"/><rect fill="#0a0a0a" x="1061.4" y="733.5" width="402.6" height="24.65" shape-rendering="crispEdges"/><rect fill="#0a0a0a" x="0" y="757.9" width="1464" height="24.65" shape-rendering="crispEdges"/><rect fill="#0a0a0a" x="0" y="782.3" width="1464" height="24.65" shape-rendering="crispEdges"/><rect fill="#0a0a0a" x="0" y="806.7" width="1464" height="24.65" shape-rendering="crispEdges"/><rect fill="#1e1e1e" x="0" y="831.1" width="61" height="24.65" shape-rendering="crispEdges"/><rect fill="#1e1e1e" x="61" y="831.1" width="158.6" height="24.65" shape-rendering="crispEdges"/><rect fill="#1e1e1e" x="219.6" y="831.1" width="1244.4" height="24.65" shape-rendering="crispEdges"/>
    <g class="terminal-26338496-matrix">
    <text class="terminal-26338496-r2" x="12.2" y="20" textLength="12.2" clip-path="url(#terminal-26338496-line-0)">⭘</text><text class="terminal-26338496-r2" x="561.2" y="20" textLength="109.8" clip-path="url(#terminal-26338496-line-0)">StudyTime</text><text class="terminal-26338496-r3" x="671" y="20" textLength="36.6" clip-path="url(#terminal-26338496-line-0)">&#160;—&#160;</text><text class="terminal-26338496-r3" x="707.6" y="20" textLength="158.6" clip-path="url(#terminal-26338496-line-0)">Study&#160;Session</text><text class="terminal-26338496-r1" x="1464" y="20" textLength="12.2" clip-path="url(#terminal-26338496-line-0)">
</text><text class="terminal-26338496-r1" x="1464" y="44.4" textLength="12.2" clip-path="url(#terminal-26338496-line-1)">
</text><text class="terminal-26338496-r1" x="1464" y="68.8" textLength="12.2" clip-path="url(#terminal-26338496-line-2)">
</text><text class="terminal-26338496-r1" x="1464" y="93.2" textLength="12.2" clip-path="url(#terminal-26338496-line-3)">
</text><text class="terminal-26338496-r1" x="1464" y="117.6" textLength="12.2" clip-path="url(#terminal-26338496-line-4)">
</text><text class="terminal-26338496-r1" x="1464" y="142" textLength="12.2" clip-path="url(#terminal-26338496-line-5)">
</text><text class="terminal-26338496-r1" x="1464" y="166.4" textLength="12.2" clip-path="url(#terminal-26338496-line-6)">
</text><text class="terminal-26338496-r1" x="1464" y="190.8" textLength="12.2" clip-path="url(#terminal-26338496-line-7)">
</text><text class="terminal-26338496-r1" x="1464" y="215.2" textLength="12.2" clip-path="url(#terminal-26338496-line-8)">
</text><text class="terminal-26338496-r1" x="1464" y="239.6" textLength="12.2" clip-path="url(#terminal-26338496-line-9)">
</text><text class="terminal-26338496-r1" x="1464" y="264" textLength="12.2" clip-path="url(#terminal-26338496-line-10)">
</text><text class="terminal-26338496-r1" x="1464" y="288.4" textLength="12.2" clip-path="url(#terminal-26338496-line-11)">
</text><text class="terminal-26338496-r1" x="1464" y="312.8" textLength="12.2" clip-path="url(#terminal-26338496-line-12)">
</text><text class="terminal-26338496-r1" x="1464" y="337.2" textLength="12.2" clip-path="url(#terminal-26338496-line-13)">
</text><text class="terminal-26338496-r2" x="585.6" y="361.6" textLength="292.8" clip-path="url(#terminal-26338496-line-14)">╭─╮╭─╮&#160;&#160;&#160;╭─╮╭─╮&#160;&#160;&#160;╭─╮╭─╮</text><text class="terminal-26338496-r1" x="1464" y="361.6" textLength="12.2" clip-path="url(#terminal-26338496-line-14)">
</text><text class="terminal-26338496-r2" x="585.6" y="386" textLength="292.8" clip-path="url(#terminal-26338496-line-15)">│&#160;││&#160;│&#160;:&#160;│&#160;││&#160;│&#160;:&#160;│&#160;││&#160;│</text><text class="terminal-26338496-r1" x="1464" y="386" textLength="12.2" clip-path="url(#terminal-26338496-line-15)">
</text><text class="terminal-26338496-r2" x="585.6" y="410.4" textLength="292.8" clip-path="url(#terminal-26338496-line-16)">╰─╯╰─╯&#160;&#160;&#160;╰─╯╰─╯&#160;&#160;&#160;╰─╯╰─╯</text><text class="terminal-26338496-r1" x="1464" y="410.4" textLength="12.2" clip-path="url(#terminal-26338496-line-16)">
</text><text class="terminal-26338496-r1" x="1464" y="434.8" textLength="12.2" clip-path="url(#terminal-26338496-line-17)">
</text><text class="terminal-26338496-r4" x="195.2" y="459.2" textLength="183" clip-path="url(#terminal-26338496-line-18)">▔▔▔▔▔▔▔▔▔▔▔▔▔▔▔</text><text class="terminal-26338496-r5" x="402.6" y="459.2" textLength="12.2" clip-path="url(#terminal-26338496-line-18)">▊</text><text class="terminal-26338496-r6" x="414.8" y="459.2" textLength="634.4" clip-path="url(#terminal-26338496-line-18)">▔▔▔▔▔▔▔▔▔▔▔▔▔▔▔▔▔▔▔▔▔▔▔▔▔▔▔▔▔▔▔▔▔▔▔▔▔▔▔▔▔▔▔▔▔▔▔▔▔▔▔▔</text><text class="terminal-26338496-r6" x="1049.2" y="459.2" textLength="12.2" clip-path="url(#terminal-26338496-line-18)">▎</text><text class="terminal-26338496-r7" x="1085.8" y="459.2" textLength="183" clip-path="url(#terminal-26338496-line-18)">▔▔▔▔▔▔▔▔▔▔▔▔▔▔▔</text><text class="terminal-26338496-r1" x="1464" y="459.2" textLength="12.2" clip-path="url(#terminal-26338496-line-18)">
</text><text class="terminal-26338496-r8" x="244" y="483.6" textLength="85.4" clip-path="url(#terminal-26338496-line-19)">&#160;Start&#160;</text><text class="terminal-26338496-r5" x="402.6" y="483.6" textLength="12.2" clip-path="url(#terminal-26338496-line-19)">▊</text><text class="terminal-26338496-r2" x="439.2" y="483.6" textLength="97.6" clip-path="url(#terminal-26338496-line-19)">Italiano</text><text class="terminal-26338496-r9" x="1012.6" y="483.6" textLength="12.2" clip-path="url(#terminal-26338496-line-19)">▲</text><text class="terminal-26338496-r6" x="1049.2" y="483.6" textLength="12.2" clip-path="url(#terminal-26338496-line-19)">▎</text><text class="terminal-26338496-r10" x="1134.6" y="483.6" textLength="73.2" clip-path="url(#terminal-26338496-line-19)">&#160;Stop&#160;</text><text class="terminal-26338496-r1" x="1464" y="483.6" textLength="12.2" clip-path="url(#terminal-26338496-line-19)">
</text><text class="terminal-26338496-r11" x="195.2" y="508" textLength="183" clip-path="url(#terminal-26338496-line-20)">▁▁▁▁▁▁▁▁▁▁▁▁▁▁▁</text><text class="terminal-26338496-r5" x="402.6" y="508" textLength="12.2" clip-path="url(#terminal-26338496-line-20)">▊</text><text class="terminal-26338496-r6" x="414.8" y="508" textLength="634.4" clip-path="url(#terminal-26338496-line-20)">▁▁▁▁▁▁▁▁▁▁▁▁▁▁▁▁▁▁▁▁▁▁▁▁▁▁▁▁▁▁▁▁▁▁▁▁▁▁▁▁▁▁▁▁▁▁▁▁▁▁▁▁</text><text class="terminal-26338496-r6" x="1049.2" y="508" textLength="12.2" clip-path="url(#terminal-26338496-line-20)">▎</text><text class="terminal-26338496-r12" x="1085.8" y="508" textLength="183" clip-path="url(#terminal-26338496-line-20)">▁▁▁▁▁▁▁▁▁▁▁▁▁▁▁</text><text class="terminal-26338496-r1" x="1464" y="508" textLength="12.2" clip-path="url(#terminal-26338496-line-20)">
</text><text class="terminal-26338496-r5" x="402.6" y="532.4" textLength="12.2" clip-path="url(#terminal-26338496-line-21)">▊</text><text class="terminal-26338496-r13" x="414.8" y="532.4" textLength="634.4" clip-path="url(#terminal-26338496-line-21)">▔▔▔▔▔▔▔▔▔▔▔▔▔▔▔▔▔▔▔▔▔▔▔▔▔▔▔▔▔▔▔▔▔▔▔▔▔▔▔▔▔▔▔▔▔▔▔▔▔▔▔▔</text><text class="terminal-26338496-r13" x="1049.2" y="532.4" textLength="12.2" clip-path="url(#terminal-26338496-line-21)">▎</text><text class="terminal-26338496-r1" x="1464" y="532.4" textLength="12.2" clip-path="url(#terminal-26338496-line-21)">
</text><text class="terminal-26338496-r5" x="402.6" y="556.8" textLength="12.2" clip-path="url(#terminal-26338496-line-22)">▊</text><text class="terminal-26338496-r14" x="439.2" y="556.8" textLength="170.8" clip-path="url(#terminal-26338496-line-22)">Select&#160;subject</text><text class="terminal-26338496-r13" x="1049.2" y="556.8" textLength="12.2" clip-path="url(#terminal-26338496-line-22)">▎</text><text class="terminal-26338496-r1" x="1464" y="556.8" textLength="12.2" clip-path="url(#terminal-26338496-line-22)">
</text><text class="terminal-26338496-r5" x="402.6" y="581.2" textLength="12.2" clip-path="url(#terminal-26338496-line-23)">▊</text><text class="terminal-26338496-r2" x="439.2" y="581.2" textLength="73.2" clip-path="url(#terminal-26338496-line-23)">Fisica</text><text class="terminal-26338496-r13" x="1049.2" y="581.2" textLength="12.2" clip-path="url(#terminal-26338496-line-23)">▎</text><text class="terminal-26338496-r1" x="1464" y="581.2" textLength="12.2" clip-path="url(#terminal-26338496-line-23)">
</text><text class="terminal-26338496-r5" x="402.6" y="605.6" textLength="12.2" clip-path="url(#terminal-26338496-line-24)">▊</text><text class="terminal-26338496-r2" x="439.2" y="605.6" textLength="97.6" clip-path="url(#terminal-26338496-line-24)">Francese</text><text class="terminal-26338496-r13" x="1049.2" y="605.6" textLength="12.2" clip-path="url(#terminal-26338496-line-24)">▎</text><text class="terminal-26338496-r1" x="1464" y="605.6" textLength="12.2" clip-path="url(#terminal-26338496-line-24)">
</text><text class="terminal-26338496-r5" x="402.6" y="630" textLength="12.2" clip-path="url(#terminal-26338496-line-25)">▊</text><text class="terminal-26338496-r2" x="439.2" y="630" textLength="85.4" clip-path="url(#terminal-26338496-line-25)">Inglese</text><text class="terminal-26338496-r13" x="1049.2" y="630" textLength="12.2" clip-path="url(#terminal-26338496-line-25)">▎</text><text class="terminal-26338496-r1" x="1464" y="630" textLength="12.2" clip-path="url(#terminal-26338496-line-25)">
</text><text class="terminal-26338496-r5" x="402.6" y="654.4" textLength="12.2" clip-path="url(#terminal-26338496-line-26)">▊</text><text class="terminal-26338496-r15" x="439.2" y="654.4" textLength="97.6" clip-path="url(#terminal-26338496-line-26)">Italiano</text><text class="terminal-26338496-r13" x="1049.2" y="654.4" textLength="12.2" clip-path="url(#terminal-26338496-line-26)">▎</text><text class="terminal-26338496-r1" x="1464" y="654.4" textLength="12.2" clip-path="url(#terminal-26338496-line-26)">
</text><text class="terminal-26338496-r5" x="402.6" y="678.8" textLength="12.2" clip-path="url(#terminal-26338496-line-27)">▊</text><text class="terminal-26338496-r2" x="439.2" y="678.8" textLength="122" clip-path="url(#terminal-26338496-line-27)">Matematica</text><text class="terminal-26338496-r13" x="1049.2" y="678.8" textLength="12.2" clip-path="url(#terminal-26338496-line-27)">▎</text><text class="terminal-26338496-r1" x="1464" y="678.8" textLength="12.2" clip-path="url(#terminal-26338496-line-27)">
</text><text class="terminal-26338496-r5" x="402.6" y="703.2" textLength="12.2" clip-path="url(#terminal-26338496-line-28)">▊</text><text class="terminal-26338496-r2" x="439.2" y="703.2" textLength="73.2" clip-path="url(#terminal-26338496-line-28)">Storia</text><text class="terminal-26338496-r13" x="1049.2" y="703.2" textLength="12.2" clip-path="url(#terminal-26338496-line-28)">▎</text><text class="terminal-26338496-r1" x="1464" y="703.2" textLength="12.2" clip-path="url(#terminal-26338496-line-28)">
</text><text class="terminal-26338496-r5" x="402.6" y="727.6" textLength="12.2" clip-path="url(#terminal-26338496-line-29)">▊</text><text class="terminal-26338496-r2" x="439.2" y="727.6" textLength="85.4" clip-path="url(#terminal-26338496-line-29)">Tedesco</text><text class="terminal-26338496-r13" x="1049.2" y="727.6" textLength="12.2" clip-path="url(#terminal-26338496-line-29)">▎</text><text class="terminal-26338496-r1" x="1464" y="727.6" textLength="12.2" clip-path="url(#terminal-26338496-line-29)">
</text><text class="terminal-26338496-r5" x="402.6" y="752" textLength="12.2" clip-path="url(#terminal-26338496-line-30)">▊</text><text class="terminal-26338496-r13" x="414.8" y="752" textLength="634.4" clip-path="url(#terminal-26338496-line-30)">▁▁▁▁▁▁▁▁▁▁▁▁▁▁▁▁▁▁▁▁▁▁▁▁▁▁▁▁▁▁▁▁▁▁▁▁▁▁▁▁▁▁▁▁▁▁▁▁▁▁▁▁</text><text class="terminal-26338496-r13" x="1049.2" y="752" textLength="12.2" clip-path="url(#terminal-26338496-line-30)">▎</text><text class="terminal-26338496-r1" x="1464" y="752" textLength="12.2" clip-path="url(#terminal-26338496-line-30)">
</text><text class="terminal-26338496-r1" x="1464" y="776.4" textLength="12.2" clip-path="url(#terminal-26338496-line-31)">
</text><text class="terminal-26338496-r1" x="1464" y="800.8" textLength="12.2" clip-path="url(#terminal-26338496-line-32)">
</text><text class="terminal-26338496-r1" x="1464" y="825.2" textLength="12.2" clip-path="url(#terminal-26338496-line-33)">
</text><text class="terminal-26338496-r16" x="0" y="849.6" textLength="61" clip-path="url(#terminal-26338496-line-34)">&#160;esc&#160;</text><text class="terminal-26338496-r2" x="61" y="849.6" textLength="158.6" clip-path="url(#terminal-26338496-line-34)">Dismiss&#160;menu&#160;</text>
    </g>
    </g>
</svg>
