<svg class="rich-terminal" viewBox="0 0 1482 904.0" xmlns="http://www.w3.org/2000/svg">
    <!-- Generated with Rich https://www.textualize.io -->
    <style>

    @font-face {
        font-family: "Fira Code";
        src: local("FiraCode-Regular"),
                url("https://cdnjs.cloudflare.com/ajax/libs/firacode/6.2.0/woff2/FiraCode-Regular.woff2") format("woff2"),
                url("https://cdnjs.cloudflare.com/ajax/libs/firacode/6.2.0/woff/FiraCode-Regular.woff") format("woff");
        font-style: normal;
        font-weight: 400;
    }
    @font-face {
        font-family: "Fira Code";
        src: local("FiraCode-Bold"),
                url("https://cdnjs.cloudflare.com/ajax/libs/firacode/6.2.0/woff2/FiraCode-Bold.woff2") format("woff2"),
                url("https://cdnjs.cloudflare.com/ajax/libs/firacode/6.2.0/woff/FiraCode-Bold.woff") format("woff");
        font-style: bold;
        font-weight: 700;
    }

    .terminal-1691739529-matrix {
        font-family: Fira Code, monospace;
        font-size: 20px;
        line-height: 24.4px;
        font-variant-east-asian: full-width;
    }

    .terminal-1691739529-title {
        font-size: 18px;
        font-weight: bold;
        font-family: arial;
    }

    .terminal-1691739529-r1 { fill: #c5c8c6 }
.terminal-1691739529-r2 { fill: #f0f0f0 }
.terminal-1691739529-r3 { fill: #a8a8a8 }
.terminal-1691739529-r4 { fill: #f0f0f0;font-weight: bold }
.terminal-1691739529-r5 { fill: #f2dde0;font-weight: bold }
.terminal-1691739529-r6 { fill: #9b0014;font-weight: bold }
    </style>

    <defs>
    <clipPath id="terminal-1691739529-clip-terminal">
      <rect x="0" y="0" width="1463.0" height="853.0" />
    </clipPath>
    <clipPath id="terminal-1691739529-line-0">
    <rect x="0" y="1.5" width="1464" height="24.65"/>
            </clipPath>
<clipPath id="terminal-1691739529-line-1">
    <rect x="0" y="25.9" width="1464" height="24.65"/>
            </clipPath>
<clipPath id="terminal-1691739529-line-2">
    <rect x="0" y="50.3" width="1464" height="24.65"/>
            </clipPath>
<clipPath id="terminal-1691739529-line-3">
    <rect x="0" y="74.7" width="1464" height="24.65"/>
            </clipPath>
<clipPath id="terminal-1691739529-line-4">
    <rect x="0" y="99.1" width="1464" height="24.65"/>
            </clipPath>
<clipPath id="terminal-1691739529-line-5">
    <rect x="0" y="123.5" width="1464" height="24.65"/>
            </clipPath>
<clipPath id="terminal-1691739529-line-6">
    <rect x="0" y="147.9" width="1464" height="24.65"/>
            </clipPath>
<clipPath id="terminal-1691739529-line-7">
    <rect x="0" y="172.3" width="1464" height="24.65"/>
            </clipPath>
<clipPath id="terminal-1691739529-line-8">
    <rect x="0" y="196.7" width="1464" height="24.65"/>
            </clipPath>
<clipPath id="terminal-1691739529-line-9">
    <rect x="0" y="221.1" width="1464" height="24.65"/>
            </clipPath>
<clipPath id="terminal-1691739529-line-10">
    <rect x="0" y="245.5" width="1464" height="24.65"/>
            </clipPath>
<clipPath id="terminal-1691739529-line-11">
    <rect x="0" y="269.9" width="1464" height="24.65"/>
            </clipPath>
<clipPath id="terminal-1691739529-line-12">
    <rect x="0" y="294.3" width="1464" height="24.65"/>
            </clipPath>
<clipPath id="terminal-1691739529-line-13">
    <rect x="0" y="318.7" width="1464" height="24.65"/>
            </clipPath>
<clipPath id="terminal-1691739529-line-14">
    <rect x="0" y="343.1" width="1464" height="24.65"/>
            </clipPath>
<clipPath id="terminal-1691739529-line-15">
    <rect x="0" y="367.5" width="1464" height="24.65"/>
            </clipPath>
<clipPath id="terminal-1691739529-line-16">
    <rect x="0" y="391.9" width="1464" height="24.65"/>
            </clipPath>
<clipPath id="terminal-1691739529-line-17">
    <rect x="0" y="416.3" width="1464" height="24.65"/>
            </clipPath>
<clipPath id="terminal-1691739529-line-18">
    <rect x="0" y="440.7" width="1464" height="24.65"/>
            </clipPath>
<clipPath id="terminal-1691739529-line-19">
    <rect x="0" y="465.1" width="1464" height="24.65"/>
            </clipPath>
<clipPath id="terminal-1691739529-line-20">
    <rect x="0" y="489.5" width="1464" height="24.65"/>
            </clipPath>
<clipPath id="terminal-1691739529-line-21">
    <rect x="0" y="513.9" width="1464" height="24.65"/>
            </clipPath>
<clipPath id="terminal-1691739529-line-22">
    <rect x="0" y="538.3" width="1464" height="24.65"/>
            </clipPath>
<clipPath id="terminal-1691739529-line-23">
    <rect x="0" y="562.7" width="1464" height="24.65"/>
            </clipPath>
<clipPath id="terminal-1691739529-line-24">
    <rect x="0" y="587.1" width="1464" height="24.65"/>
            </clipPath>
<clipPath id="terminal-1691739529-line-25">
    <rect x="0" y="611.5" width="1464" height="24.65"/>
            </clipPath>
<clipPath id="terminal-1691739529-line-26">
    <rect x="0" y="635.9" width="1464" height="24.65"/>
            </clipPath>
<clipPath id="terminal-1691739529-line-27">
    <rect x="0" y="660.3" width="1464" height="24.65"/>
            </clipPath>
<clipPath id="terminal-1691739529-line-28">
    <rect x="0" y="684.7" width="1464" height="24.65"/>
            </clipPath>
<clipPath id="terminal-1691739529-line-29">
    <rect x="0" y="709.1" width="1464" height="24.65"/>
            </clipPath>
<clipPath id="terminal-1691739529-line-30">
    <rect x="0" y="733.5" width="1464" height="24.65"/>
            </clipPath>
<clipPath id="terminal-1691739529-line-31">
    <rect x="0" y="757.9" width="1464" height="24.65"/>
            </clipPath>
<clipPath id="terminal-1691739529-line-32">
    <rect x="0" y="782.3" width="1464" height="24.65"/>
            </clipPath>
<clipPath id="terminal-1691739529-line-33">
    <rect x="0" y="806.7" width="1464" height="24.65"/>
            </clipPath>
    </defs>

    <rect fill="#292929" stroke="rgba(255,255,255,0.35)" stroke-width="1" x="1" y="1" width="1480" height="902" rx="8"/><text class="terminal-1691739529-title" fill="#c5c8c6" text-anchor="middle" x="740" y="27">StudyTime</text>
            <g transform="translate(26,22)">
            <circle cx="0" cy="0" r="7" fill="#ff5f57"/>
            <circle cx="22" cy="0" r="7" fill="#febc2e"/>
            <circle cx="44" cy="0" r="7" fill="#28c840"/>
            </g>
        
    <g transform="translate(9, 41)" clip-path="url(#terminal-1691739529-clip-terminal)">
    <rect fill="#1e1e1e" x="0" y="1.5" width="12.2" height="24.65" shape-rendering="crispEdges"/><rect fill="#1e1e1e" x="12.2" y="1.5" width="12.2" height="24.65" shape-rendering="crispEdges"/><rect fill="#1e1e1e" x="24.4" y="1.5" width="61" height="24.65" shape-rendering="crispEdges"/><rect fill="#1e1e1e" x="85.4" y="1.5" width="12.2" height="24.65" shape-rendering="crispEdges"/><rect fill="#1e1e1e" x="97.6" y="1.5" width="427" height="24.65" shape-rendering="crispEdges"/><rect fill="#1e1e1e" x="524.6" y="1.5" width="109.8" height="24.65" shape-rendering="crispEdges"/><rect fill="#1e1e1e" x="634.4" y="1.5" width="36.6" height="24.65" shape-rendering="crispEdges"/><rect fill="#1e1e1e" x="671" y="1.5" width="231.8" height="24.65" shape-rendering="crispEdges"/><rect fill="#1e1e1e" x="902.8" y="1.5" width="439.2" height="24.65" shape-rendering="crispEdges"/><rect fill="#1e1e1e" x="1342" y="1.5" width="12.2" height="24.65" shape-rendering="crispEdges"/><rect fill="#1e1e1e" x="1354.2" y="1.5" width="0" height="24.65" shape-rendering="crispEdges"/><rect fill="#1e1e1e" x="1354.2" y="1.5" width="97.6" height="24.65" shape-rendering="crispEdges"/><rect fill="#1e1e1e" x="1451.8" y="1.5" width="12.2" height="24.65" shape-rendering="crispEdges"/><rect fill="#0a0a0a" x="0" y="25.9" width="1464" height="24.65" shape-rendering="crispEdges"/><rect fill="#0a0a0a" x="0" y="50.3" width="1464" height="24.65" shape-rendering="crispEdges"/><rect fill="#0a0a0a" x="0" y="74.7" width="1464" height="24.65" shape-rendering="crispEdges"/><rect fill="#0a0a0a" x="0" y="99.1" width="1464" height="24.65" shape-rendering="crispEdges"/><rect fill="#0a0a0a" x="0" y="123.5" width="1464" height="24.65" shape-rendering="crispEdges"/><rect fill="#0a0a0a" x="0" y="147.9" width="1464" height="24.65" shape-rendering="crispEdges"/><rect fill="#0a0a0a" x="0" y="172.3" width="1464" height="24.65" shape-rendering="crispEdges"/><rect fill="#0a0a0a" x="0" y="196.7" width="1464" height="24.65" shape-rendering="crispEdges"/><rect fill="#0a0a0a" x="0" y="221.1" width="1464" height="24.65" shape-rendering="crispEdges"/><rect fill="#0a0a0a" x="0" y="245.5" width="1464" height="24.65" shape-rendering="crispEdges"/><rect fill="#0a0a0a" x="0" y="269.9" width="1464" height="24.65" shape-rendering="crispEdges"/><rect fill="#0a0a0a" x="0" y="294.3" width="1464" height="24.65" shape-rendering="crispEdges"/><rect fill="#0a0a0a" x="0" y="318.7" width="244" height="24.65" shape-rendering="crispEdges"/><rect fill="#282828" x="244" y="318.7" width="146.4" height="24.65" shape-rendering="crispEdges"/><rect fill="#282828" x="390.4" y="318.7" width="414.8" height="24.65" shape-rendering="crispEdges"/><rect fill="#282828" x="805.2" y="318.7" width="414.8" height="24.65" shape-rendering="crispEdges"/><rect fill="#323336" x="1220" y="318.7" width="0" height="24.65" shape-rendering="crispEdges"/><rect fill="#0a0a0a" x="1220" y="318.7" width="244" height="24.65" shape-rendering="crispEdges"/><rect fill="#0a0a0a" x="0" y="343.1" width="244" height="24.65" shape-rendering="crispEdges"/><rect fill="#505760" x="244" y="343.1" width="146.4" height="24.65" shape-rendering="crispEdges"/><rect fill="#505760" x="390.4" y="343.1" width="414.8" height="24.65" shape-rendering="crispEdges"/><rect fill="#505760" x="805.2" y="343.1" width="414.8" height="24.65" shape-rendering="crispEdges"/><rect fill="#505760" x="1220" y="343.1" width="0" height="24.65" shape-rendering="crispEdges"/><rect fill="#0a0a0a" x="1220" y="343.1" width="244" height="24.65" shape-rendering="crispEdges"/><rect fill="#0a0a0a" x="0" y="367.5" width="244" height="24.65" shape-rendering="crispEdges"/><rect fill="#505760" x="244" y="367.5" width="146.4" height="24.65" shape-rendering="crispEdges"/><rect fill="#505760" x="390.4" y="367.5" width="414.8" height="24.65" shape-rendering="crispEdges"/><rect fill="#505760" x="805.2" y="367.5" width="414.8" height="24.65" shape-rendering="crispEdges"/><rect fill="#505760" x="1220" y="367.5" width="0" height="24.65" shape-rendering="crispEdges"/><rect fill="#0a0a0a" x="1220" y="367.5" width="244" height="24.65" shape-rendering="crispEdges"/><rect fill="#0a0a0a" x="0" y="391.9" width="244" height="24.65" shape-rendering="crispEdges"/><rect fill="#505760" x="244" y="391.9" width="146.4" height="24.65" shape-rendering="crispEdges"/><rect fill="#505760" x="390.4" y="391.9" width="414.8" height="24.65" shape-rendering="crispEdges"/><rect fill="#505760" x="805.2" y="391.9" width="414.8" height="24.65" shape-rendering="crispEdges"/><rect fill="#505760" x="1220" y="391.9" width="0" height="24.65" shape-rendering="crispEdges"/><rect fill="#0a0a0a" x="1220" y="391.9" width="244" height="24.65" shape-rendering="crispEdges"/><rect fill="#0a0a0a" x="0" y="416.3" width="244" height="24.65" shape-rendering="crispEdges"/><rect fill="#9b0014" x="244" y="416.3" width="146.4" height="24.65" shape-rendering="crispEdges"/><rect fill="#9b0014" x="390.4" y="416.3" width="414.8" height="24.65" shape-rendering="crispEdges"/><rect fill="#9b0014" x="805.2" y="416.3" width="414.8" height="24.65" shape-rendering="crispEdges"/><rect fill="#505760" x="1220" y="416.3" width="0" height="24.65" shape-rendering="crispEdges"/><rect fill="#0a0a0a" x="1220" y="416.3" width="244" height="24.65" shape-rendering="crispEdges"/><rect fill="#0a0a0a" x="0" y="440.7" width="244" height="24.65" shape-rendering="crispEdges"/><rect fill="#505760" x="244" y="440.7" width="146.4" height="24.65" shape-rendering="crispEdges"/><rect fill="#505760" x="390.4" y="440.7" width="414.8" height="24.65" shape-rendering="crispEdges"/><rect fill="#505760" x="805.2" y="440.7" width="414.8" height="24.65" shape-rendering="crispEdges"/><rect fill="#505760" x="1220" y="440.7" width="0" height="24.65" shape-rendering="crispEdges"/><rect fill="#0a0a0a" x="1220" y="440.7" width="244" height="24.65" shape-rendering="crispEdges"/><rect fill="#0a0a0a" x="0" y="465.1" width="244" height="24.65" shape-rendering="crispEdges"/><rect fill="#505760" x="244" y="465.1" width="146.4" height="24.65" shape-rendering="crispEdges"/><rect fill="#505760" x="390.4" y="465.1" width="414.8" height="24.65" shape-rendering="crispEdges"/><rect fill="#505760" x="805.2" y="465.1" width="414.8" height="24.65" shape-rendering="crispEdges"/><rect fill="#505760" x="1220" y="465.1" width="0" height="24.65" shape-rendering="crispEdges"/><rect fill="#0a0a0a" x="1220" y="465.1" width="244" height="24.65" shape-rendering="crispEdges"/><rect fill="#0a0a0a" x="0" y="489.5" width="244" height="24.65" shape-rendering="crispEdges"/><rect fill="#505760" x="244" y="489.5" width="146.4" height="24.65" shape-rendering="crispEdges"/><rect fill="#505760" x="390.4" y="489.5" width="414.8" height="24.65" shape-rendering="crispEdges"/><rect fill="#505760" x="805.2" y="489.5" width="414.8" height="24.65" shape-rendering="crispEdges"/><rect fill="#505760" x="1220" y="489.5" width="0" height="24.65" shape-rendering="crispEdges"/><rect fill="#0a0a0a" x="1220" y="489.5" width="244" height="24.65" shape-rendering="crispEdges"/><rect fill="#0a0a0a" x="0" y="513.9" width="1464" height="24.65" shape-rendering="crispEdges"/><rect fill="#0a0a0a" x="0" y="538.3" width="1464" height="24.65" shape-rendering="crispEdges"/><rect fill="#0a0a0a" x="0" y="562.7" width="1464" height="24.65" shape-rendering="crispEdges"/><rect fill="#0a0a0a" x="0" y="587.1" width="1464" height="24.65" shape-rendering="crispEdges"/><rect fill="#0a0a0a" x="0" y="611.5" width="1464" height="24.65" shape-rendering="crispEdges"/><rect fill="#0a0a0a" x="0" y="635.9" width="1464" height="24.65" shape-rendering="crispEdges"/><rect fill="#0a0a0a" x="0" y="660.3" width="1464" height="24.65" shape-rendering="crispEdges"/><rect fill="#0a0a0a" x="0" y="684.7" width="1464" height="24.65" shape-rendering="crispEdges"/><rect fill="#0a0a0a" x="0" y="709.1" width="1464" height="24.65" shape-rendering="crispEdges"/><rect fill="#0a0a0a" x="0" y="733.5" width="1464" height="24.65" shape-rendering="crispEdges"/><rect fill="#0a0a0a" x="0" y="757.9" width="1464" height="24.65" shape-rendering="crispEdges"/><rect fill="#0a0a0a" x="0" y="782.3" width="1464" height="24.65" shape-rendering="crispEdges"/><rect fill="#0a0a0a" x="0" y="806.7" width="1464" height="24.65" shape-rendering="crispEdges"/><rect fill="#1e1e1e" x="0" y="831.1" width="36.6" height="24.65" shape-rendering="crispEdges"/><rect fill="#1e1e1e" x="36.6" y="831.1" width="48.8" height="24.65" shape-rendering="crispEdges"/><rect fill="#1e1e1e" x="85.4" y="831.1" width="36.6" height="24.65" shape-rendering="crispEdges"/><rect fill="#1e1e1e" x="122" y="831.1" width="61" height="24.65" shape-rendering="crispEdges"/><rect fill="#1e1e1e" x="183" y="831.1" width="36.6" height="24.65" shape-rendering="crispEdges"/><rect fill="#1e1e1e" x="219.6" y="831.1" width="85.4" height="24.65" shape-rendering="crispEdges"/><rect fill="#1e1e1e" x="305" y="831.1" width="36.6" height="24.65" shape-rendering="crispEdges"/><rect fill="#1e1e1e" x="341.6" y="831.1" width="61" height="24.65" shape-rendering="crispEdges"/><rect fill="#1e1e1e" x="402.6" y="831.1" width="61" height="24.65" shape-rendering="crispEdges"/><rect fill="#1e1e1e" x="463.6" y="831.1" width="122" height="24.65" shape-rendering="crispEdges"/><rect fill="#1e1e1e" x="585.6" y="831.1" width="36.6" height="24.65" shape-rendering="crispEdges"/><rect fill="#1e1e1e" x="622.2" y="831.1" width="61" height="24.65" shape-rendering="crispEdges"/><rect fill="#1e1e1e" x="683.2" y="831.1" width="780.8" height="24.65" shape-rendering="crispEdges"/>
    <g class="terminal-1691739529-matrix">
    <text class="terminal-1691739529-r2" x="12.2" y="20" textLength="12.2" clip-path="url(#terminal-1691739529-line-0)">⭘</text><text class="terminal-1691739529-r2" x="524.6" y="20" textLength="109.8" clip-path="url(#terminal-1691739529-line-0)">StudyTime</text><text class="terminal-1691739529-r3" x="634.4" y="20" textLength="36.6" clip-path="url(#terminal-1691739529-line-0)">&#160;—&#160;</text><text class="terminal-1691739529-r3" x="671" y="20" textLength="231.8" clip-path="url(#terminal-1691739529-line-0)">Add&#160;/&#160;Edit&#160;subjects</text><text class="terminal-1691739529-r1" x="1464" y="20" textLength="12.2" clip-path="url(#terminal-1691739529-line-0)">
</text><text class="terminal-1691739529-r1" x="1464" y="44.4" textLength="12.2" clip-path="url(#terminal-1691739529-line-1)">
</text><text class="terminal-1691739529-r1" x="1464" y="68.8" textLength="12.2" clip-path="url(#terminal-1691739529-line-2)">
</text><text class="terminal-1691739529-r1" x="1464" y="93.2" textLength="12.2" clip-path="url(#terminal-1691739529-line-3)">
</text><text class="terminal-1691739529-r1" x="1464" y="117.6" textLength="12.2" clip-path="url(#terminal-1691739529-line-4)">
</text><text class="terminal-1691739529-r1" x="1464" y="142" textLength="12.2" clip-path="url(#terminal-1691739529-line-5)">
</text><text class="terminal-1691739529-r1" x="1464" y="166.4" textLength="12.2" clip-path="url(#terminal-1691739529-line-6)">
</text><text class="terminal-1691739529-r1" x="1464" y="190.8" textLength="12.2" clip-path="url(#terminal-1691739529-line-7)">
</text><text class="terminal-1691739529-r1" x="1464" y="215.2" textLength="12.2" clip-path="url(#terminal-1691739529-line-8)">
</text><text class="terminal-1691739529-r1" x="1464" y="239.6" textLength="12.2" clip-path="url(#terminal-1691739529-line-9)">
</text><text class="terminal-1691739529-r1" x="1464" y="264" textLength="12.2" clip-path="url(#terminal-1691739529-line-10)">
</text><text class="terminal-1691739529-r1" x="1464" y="288.4" textLength="12.2" clip-path="url(#terminal-1691739529-line-11)">
</text><text class="terminal-1691739529-r1" x="1464" y="312.8" textLength="12.2" clip-path="url(#terminal-1691739529-line-12)">
</text><text class="terminal-1691739529-r4" x="244" y="337.2" textLength="146.4" clip-path="url(#terminal-1691739529-line-13)">&#160;Subject&#160;&#160;&#160;&#160;</text><text class="terminal-1691739529-r4" x="390.4" y="337.2" textLength="414.8" clip-path="url(#terminal-1691739529-line-13)">&#160;Added&#160;&#160;&#160;&#160;&#160;&#160;&#160;&#160;&#160;&#160;&#160;&#160;&#160;&#160;&#160;&#160;&#160;&#160;&#160;&#160;&#160;&#160;&#160;&#160;&#160;&#160;&#160;&#160;</text><text class="terminal-1691739529-r4" x="805.2" y="337.2" textLength="414.8" clip-path="url(#terminal-1691739529-line-13)">&#160;Last&#160;edit&#160;&#160;&#160;&#160;&#160;&#160;&#160;&#160;&#160;&#160;&#160;&#160;&#160;&#160;&#160;&#160;&#160;&#160;&#160;&#160;&#160;&#160;&#160;&#160;</text><text class="terminal-1691739529-r1" x="1464" y="337.2" textLength="12.2" clip-path="url(#terminal-1691739529-line-13)">
</text><text class="terminal-1691739529-r2" x="244" y="361.6" textLength="146.4" clip-path="url(#terminal-1691739529-line-14)">&#160;Matematica&#160;</text><text class="terminal-1691739529-r2" x="390.4" y="361.6" textLength="414.8" clip-path="url(#terminal-1691739529-line-14)">&#160;2026-01-02T15:39:29.278124+00:00&#160;</text><text class="terminal-1691739529-r2" x="805.2" y="361.6" textLength="414.8" clip-path="url(#terminal-1691739529-line-14)">&#160;2026-01-02T15:39:51.588205+00:00&#160;</text><text class="terminal-1691739529-r1" x="1464" y="361.6" textLength="12.2" clip-path="url(#terminal-1691739529-line-14)">
</text><text class="terminal-1691739529-r2" x="244" y="386" textLength="146.4" clip-path="url(#terminal-1691739529-line-15)">&#160;Storia&#160;&#160;&#160;&#160;&#160;</text><text class="terminal-1691739529-r2" x="390.4" y="386" textLength="414.8" clip-path="url(#terminal-1691739529-line-15)">&#160;2026-01-02T15:40:00.401415+00:00&#160;</text><text class="terminal-1691739529-r2" x="805.2" y="386" textLength="414.8" clip-path="url(#terminal-1691739529-line-15)">&#160;2026-01-02T18:32:33.454078+00:00&#160;</text><text class="terminal-1691739529-r1" x="1464" y="386" textLength="12.2" clip-path="url(#terminal-1691739529-line-15)">
</text><text class="terminal-1691739529-r2" x="244" y="410.4" textLength="146.4" clip-path="url(#terminal-1691739529-line-16)">&#160;Inglese&#160;&#160;&#160;&#160;</text><text class="terminal-1691739529-r2" x="390.4" y="410.4" textLength="414.8" clip-path="url(#terminal-1691739529-line-16)">&#160;2026-01-02T15:40:08.721846+00:00&#160;</text><text class="terminal-1691739529-r2" x="805.2" y="410.4" textLength="414.8" clip-path="url(#terminal-1691739529-line-16)">&#160;-&#160;&#160;&#160;&#160;&#160;&#160;&#160;&#160;&#160;&#160;&#160;&#160;&#160;&#160;&#160;&#160;&#160;&#160;&#160;&#160;&#160;&#160;&#160;&#160;&#160;&#160;&#160;&#160;&#160;&#160;&#160;&#160;</text><text class="terminal-1691739529-r1" x="1464" y="410.4" textLength="12.2" clip-path="url(#terminal-1691739529-line-16)">
</text><text class="terminal-1691739529-r5" x="244" y="434.8" textLength="146.4" clip-path="url(#terminal-1691739529-line-17)">&#160;Italiano&#160;&#160;&#160;</text><text class="terminal-1691739529-r5" x="390.4" y="434.8" textLength="414.8" clip-path="url(#terminal-1691739529-line-17)">&#160;2026-01-02T15:40:11.389907+00:00&#160;</text><text class="terminal-1691739529-r5" x="805.2" y="434.8" textLength="414.8" clip-path="url(#terminal-1691739529-line-17)">&#160;-&#160;&#160;&#160;&#160;&#160;&#160;&#160;&#160;&#160;&#160;&#160;&#160;&#160;&#160;&#160;&#160;&#160;&#160;&#160;&#160;&#160;&#160;&#160;&#160;&#160;&#160;&#160;&#160;&#160;&#160;&#160;&#160;</text><text class="terminal-1691739529-r1" x="1464" y="434.8" textLength="12.2" clip-path="url(#terminal-1691739529-line-17)">
</text><text class="terminal-1691739529-r2" x="244" y="459.2" textLength="146.4" clip-path="url(#terminal-1691739529-line-18)">&#160;Tedesco&#160;&#160;&#160;&#160;</text><text class="terminal-1691739529-r2" x="390.4" y="459.2" textLength="414.8" clip-path="url(#terminal-1691739529-line-18)">&#160;2026-01-02T18:32:21.503387+00:00&#160;</text><text class="terminal-1691739529-r2" x="805.2" y="459.2" textLength="414.8" clip-path="url(#terminal-1691739529-line-18)">&#160;-&#160;&#160;&#160;&#160;&#160;&#160;&#160;&#160;&#160;&#160;&#160;&#160;&#160;&#160;&#160;&#160;&#160;&#160;&#160;&#160;&#160;&#160;&#160;&#160;&#160;&#160;&#160;&#160;&#160;&#160;&#160;&#160;</text><text class="terminal-1691739529-r1" x="1464" y="459.2" textLength="12.2" clip-path="url(#terminal-1691739529-line-18)">
</text><text class="terminal-1691739529-r2" x="244" y="483.6" textLength="146.4" clip-path="url(#terminal-1691739529-line-19)">&#160;Francese&#160;&#160;&#160;</text><text class="terminal-1691739529-r2" x="390.4" y="483.6" textLength="414.8" clip-path="url(#terminal-1691739529-line-19)">&#160;2026-01-04T15:53:50.153273+00:00&#160;</text><text class="terminal-1691739529-r2" x="805.2" y="483.6" textLength="414.8" clip-path="url(#terminal-1691739529-line-19)">&#160;-&#160;&#160;&#160;&#160;&#160;&#160;&#160;&#160;&#160;&#160;&#160;&#160;&#160;&#160;&#160;&#160;&#160;&#160;&#160;&#160;&#160;&#160;&#160;&#160;&#160;&#160;&#160;&#160;&#160;&#160;&#160;&#160;</text><text class="terminal-1691739529-r1" x="1464" y="483.6" textLength="12.2" clip-path="url(#terminal-1691739529-line-19)">
</text><text class="terminal-1691739529-r2" x="244" y="508" textLength="146.4" clip-path="url(#terminal-1691739529-line-20)">&#160;Fisica&#160;&#160;&#160;&#160;&#160;</text><text class="terminal-1691739529-r2" x="390.4" y="508" textLength="414.8" clip-path="url(#terminal-1691739529-line-20)">&#160;2026-01-04T15:54:01.170621+00:00&#160;</text><text class="terminal-1691739529-r2" x="805.2" y="508" textLength="414.8" clip-path="url(#terminal-1691739529-line-20)">&#160;2026-01-04T15:54:05.893475+00:00&#160;</text><text class="terminal-1691739529-r1" x="1464" y="508" textLength="12.2" clip-path="url(#terminal-1691739529-line-20)">
</text><text class="terminal-1691739529-r1" x="1464" y="532.4" textLength="12.2" clip-path="url(#terminal-1691739529-line-21)">
</text><text class="terminal-1691739529-r1" x="1464" y="556.8" textLength="12.2" clip-path="url(#terminal-1691739529-line-22)">
</text><text class="terminal-1691739529-r1" x="1464" y="581.2" textLength="12.2" clip-path="url(#terminal-1691739529-line-23)">
</text><text class="terminal-1691739529-r1" x="1464" y="605.6" textLength="12.2" clip-path="url(#terminal-1691739529-line-24)">
</text><text class="terminal-1691739529-r1" x="1464" y="630" textLength="12.2" clip-path="url(#terminal-1691739529-line-25)">
</text><text class="terminal-1691739529-r1" x="1464" y="654.4" textLength="12.2" clip-path="url(#terminal-1691739529-line-26)">
</text><text class="terminal-1691739529-r1" x="1464" y="678.8" textLength="12.2" clip-path="url(#terminal-1691739529-line-27)">
</text><text class="terminal-1691739529-r1" x="1464" y="703.2" textLength="12.2" clip-path="url(#terminal-1691739529-line-28)">
</text><text class="terminal-1691739529-r1" x="1464" y="727.6" textLength="12.2" clip-path="url(#terminal-1691739529-line-29)">
</text><text class="terminal-1691739529-r1" x="1464" y="752" textLength="12.2" clip-path="url(#terminal-1691739529-line-30)">
</text><text class="terminal-1691739529-r1" x="1464" y="776.4" textLength="12.2" clip-path="url(#terminal-1691739529-line-31)">
</text><text class="terminal-1691739529-r1" x="1464" y="800.8" textLength="12.2" clip-path="url(#terminal-1691739529-line-32)">
</text><text class="terminal-1691739529-r1" x="1464" y="825.2" textLength="12.2" clip-path="url(#terminal-1691739529-line-33)">
</text><text class="terminal-1691739529-r6" x="0" y="849.6" textLength="36.6" clip-path="url(#terminal-1691739529-line-34)">&#160;a&#160;</text><text class="terminal-1691739529-r2" x="36.6" y="849.6" textLength="48.8" clip-path="url(#terminal-1691739529-line-34)">Add&#160;</text><text class="terminal-1691739529-r6" x="85.4" y="849.6" textLength="36.6" clip-path="url(#terminal-1691739529-line-34)">&#160;e&#160;</text><text class="terminal-1691739529-r2" x="122" y="849.6" textLength="61" clip-path="url(#terminal-1691739529-line-34)">Edit&#160;</text><text class="terminal-1691739529-r6" x="183" y="849.6" textLength="36.6" clip-path="url(#terminal-1691739529-line-34)">&#160;d&#160;</text><text class="terminal-1691739529-r2" x="219.6" y="849.6" textLength="85.4" clip-path="url(#terminal-1691739529-line-34)">Delete&#160;</text><text class="terminal-1691739529-r6" x="305" y="849.6" textLength="36.6" clip-path="url(#terminal-1691739529-line-34)">&#160;s&#160;</text><text class="terminal-1691739529-r2" x="341.6" y="849.6" textLength="61" clip-path="url(#terminal-1691739529-line-34)">Sort&#160;</text><text class="terminal-1691739529-r6" x="402.6" y="849.6" textLength="61" clip-path="url(#terminal-1691739529-line-34)">&#160;esc&#160;</text><text class="terminal-1691739529-r2" x="463.6" y="849.6" textLength="122" clip-path="url(#terminal-1691739529-line-34)">Main&#160;Menu&#160;</text><text class="terminal-1691739529-r6" x="585.6" y="849.6" textLength="36.6" clip-path="url(#terminal-1691739529-line-34)">&#160;q&#160;</text><text class="terminal-1691739529-r2" x="622.2" y="849.6" textLength="61" clip-path="url(#terminal-1691739529-line-34)">Quit&#160;</text>
    </g>
    </g>
</svg>
